<svg width="448" height="231" viewBox="0 0 448 231" fill="none" xmlns="http://www.w3.org/2000/svg">
<g clip-path="url(#clip0_2476_30782)">
<path d="M298.717 214.5C309.043 214.5 318.542 209.047 323.664 200.123C328.786 191.282 328.786 180.293 323.747 171.37L278.726 93.2058L233.705 15.0421C228.584 5.95328 219.001 0.5 208.758 0.5C198.432 0.5 188.933 5.95328 183.811 14.8768L138.625 92.8753L93.3568 170.956C88.2352 179.797 88.2352 190.786 93.3568 199.71C98.4784 208.551 107.896 214.087 118.221 214.17L208.51 214.417L298.717 214.5Z" fill="white"/>
<path d="M208.778 91.9916V95.849H204.849V92.0856C201.106 91.8034 197.551 90.298 194.931 87.7578L198.112 83.1476C199.984 85.0293 202.229 86.2524 204.849 86.7228V79.9487C200.545 78.8197 195.773 77.2203 195.773 71.4811C195.773 67.1532 199.141 63.4839 204.849 62.8253V58.8738H208.778V62.8253C211.959 63.1076 214.953 64.4248 217.386 66.5887L214.018 70.9166C212.521 69.5053 210.649 68.6586 208.778 68.1882V74.0214C213.082 75.1504 218.041 76.938 218.041 82.6772C218.041 87.5696 214.953 91.333 208.778 91.9916ZM205.129 73.3628V68C202.884 68.2822 201.761 69.2231 201.761 70.9166C201.948 72.1397 203.165 72.9865 205.129 73.3628ZM211.959 83.618C211.959 82.0186 210.462 81.36 208.498 80.7014V86.5347C210.743 86.3465 211.959 85.0293 211.959 83.618Z" fill="#17BCB5"/>
<path fill-rule="evenodd" clip-rule="evenodd" d="M179.207 63.4954L187.998 67.0298L187.545 68.1173L178.754 64.5829L179.207 63.4954Z" fill="#17BCB5"/>
<path fill-rule="evenodd" clip-rule="evenodd" d="M187.998 77.2792L178.947 78.5173L178.754 77.4443L187.805 76.2063L187.998 77.2792Z" fill="#17BCB5"/>
<path fill-rule="evenodd" clip-rule="evenodd" d="M187.997 87.6425L182.953 91.2269L182.22 90.1893L187.263 86.605L187.997 87.6425Z" fill="#17BCB5"/>
<path fill-rule="evenodd" clip-rule="evenodd" d="M204.174 101.347L190.159 120.029L185.36 112.147L174.032 128.202L172.977 127.424L185.36 109.812L190.255 117.694L203.214 100.471L204.174 101.347Z" fill="#1ABAB3"/>
<path fill-rule="evenodd" clip-rule="evenodd" d="M204.325 100.471L205.33 108.367L204.023 108.559L203.22 101.915L196.287 102.686L196.086 101.434L204.325 100.471Z" fill="#1ABAB3"/>
<path fill-rule="evenodd" clip-rule="evenodd" d="M230.751 64.4369L224.449 68.1173L223.819 67.1758L230.121 63.4954L230.751 64.4369Z" fill="#17BCB5"/>
<path fill-rule="evenodd" clip-rule="evenodd" d="M224.013 77.3618L233.062 78.5998L232.868 79.6728L223.819 78.4348L224.013 77.3618Z" fill="#17BCB5"/>
<path fill-rule="evenodd" clip-rule="evenodd" d="M224.384 86.6375L230.643 90.2002L229.969 91.2594L223.71 87.6966L224.384 86.6375Z" fill="#17BCB5"/>
<path d="M201.912 172.688L196.819 174.806C197.159 173.91 197.413 173.339 197.413 173.339L175.599 184.829C175.599 184.829 186.124 187.355 190.198 184.829C191.217 184.259 192.151 183.281 192.999 182.14C193.509 181.651 194.273 181.162 194.952 181.162C196.395 180.999 203.44 177.903 201.912 172.688Z" fill="#B55331"/>
<path d="M57.2411 213.416L143.801 213.5L143.969 194.876L69.4751 194.114L57.2411 213.416Z" fill="#31363E"/>
<path d="M105.245 15.0397C105.245 15.0397 113.74 14.3675 120.89 24.0307C120.89 24.0307 122.993 26.5516 123.834 32.0975C124.002 33.0218 124.17 33.9461 124.338 34.8704C125.011 37.5593 125.179 40.3322 124.927 43.1052V43.1892C125.432 46.4663 125.179 49.8274 124.338 53.0205C122.32 60.6671 121.394 67.0533 115.507 69.5741L114.329 80.2457C114.329 80.2457 137.964 81.002 140.908 85.9596C140.908 78.9013 140.151 71.8429 138.469 64.9526C136.955 59.4067 136.282 53.6927 136.534 47.9788C136.618 46.0462 136.618 44.1975 136.618 42.685C136.618 42.685 135.861 28.4842 128.039 17.1404C125.432 13.1911 121.731 10.082 117.357 8.14937C112.647 5.96463 107.264 5.79657 102.47 7.6452C91.1149 12.1827 105.245 15.0397 105.245 15.0397Z" fill="#360A08"/>
<path d="M84.716 62.4919L76.1975 65.4587L75.6071 107.926L102.934 117.59L117.44 89.4474V68.6798L84.716 62.4919Z" fill="#B55331"/>
<path d="M84.3104 61.4717C84.3104 61.4717 100.864 75.589 105.317 74.7634L115.4 71.8739C114.644 74.4332 114.14 77.075 114.056 79.7169C114.056 79.7169 113.972 79.7994 113.888 80.0471C110.443 85.1656 103.805 87.3121 98.0067 85.0831C91.4526 82.6064 80.6132 73.2774 79.6889 70.4704L84.3104 61.4717Z" fill="#993114"/>
<path d="M106.496 76.6993C103.541 77.0333 100.586 76.2817 98.1372 74.6117C92.396 71.2715 87.9213 66.1778 85.304 60.0821C82.94 54.1534 81.9268 47.7236 81.2514 41.3773L80.8292 38.7887C79.5628 26.6807 88.4279 15.9088 100.586 14.6562C112.828 13.4037 123.719 22.1715 124.986 34.196C124.986 34.4465 125.07 34.7806 125.07 35.0311L125.323 37.6197C125.746 43.9659 125.83 50.4792 124.564 56.742C123.297 63.0047 118.907 69.184 113.925 73.1921C111.308 75.5302 109.957 76.4488 106.496 76.6993Z" fill="#B55331"/>
<path d="M114.179 78.9035C114.179 78.9035 134.131 77.4688 144.485 86.3299C144.485 86.3299 155.766 93.1656 155.766 101.942C155.766 101.942 157.365 129.792 156.692 137.387L157.533 160.932C159.891 161.776 161.995 163.211 163.595 165.067C163.595 165.067 166.962 168.949 170.498 170.131C170.498 170.131 159.554 170.046 158.88 188.022L152.988 190.807C152.988 190.807 147.684 184.393 144.064 183.127L143.391 198.571C143.391 198.571 136.572 201.271 126.049 203.55C122.261 204.394 118.22 204.056 114.685 202.453C108.287 199.752 96.0802 203.043 96.0802 203.043L94.5649 203.297C93.218 204.816 91.7027 206.25 90.1033 207.516C89.0931 208.276 84.1263 207.601 82.9478 207.179C80.0856 206.166 75.3713 202.79 72.3408 199.921C72.3408 199.921 62.0705 214.689 56.4303 213.424L61.397 180.68C61.397 180.68 40.8565 133.927 41.2774 120.255C41.2774 120.255 39.0887 110.888 45.4866 105.487C45.4866 105.487 54.4099 94.9379 66.1955 92.7437H81.0116L84.2947 99.1574L85.3049 107.512C97.0904 108.778 102.226 114.77 102.226 114.77C102.226 114.77 115.021 96.3725 113.422 89.1992L114.179 78.9035Z" fill="#31363E"/>
<path d="M143.784 171.667L142.948 171.319C143.032 171.232 147.71 160.357 157.233 160.444V161.401C157.15 161.401 157.15 161.401 157.066 161.401C148.211 161.401 143.784 171.58 143.784 171.667Z" fill="#06080A"/>
<path d="M144.224 182.891L139.378 176.988C136.742 173.193 136.827 162.906 136.827 162.484H137.763C137.763 162.568 137.677 172.856 140.143 176.398L144.99 182.3L144.224 182.891Z" fill="#06080A"/>
<path d="M76.7103 177.789L76.6278 176.854C80.2589 176.428 83.8075 174.983 86.7785 172.772C83.4774 166.055 77.288 138.336 77.0404 137.146L77.8656 136.976C77.9482 137.231 84.5503 166.82 87.6863 172.687L87.8513 173.027L87.5212 173.282C84.3852 175.748 80.589 177.279 76.7103 177.789Z" fill="#06080A"/>
<path d="M159.046 185.951C159.046 185.951 156.248 185.951 157.605 179.36C157.605 179.36 160.148 168.321 168.879 168.897L174.135 170.71C174.135 170.71 178.119 166.343 181.934 167.25C181.934 167.25 191.428 162.801 196.006 165.272L159.046 185.951Z" fill="#B55331"/>
<path d="M171.395 179.829H170.497C170.497 179.581 170.497 173.707 174.007 170.646L174.579 171.308C171.395 174.121 171.395 179.747 171.395 179.829Z" fill="#561D16"/>
<path d="M97.5063 199.216L97.2501 199.05C88.7099 192.915 87.5997 182.884 87.5997 182.801C86.404 177.579 87.2581 174.926 87.6851 174.097L86.831 173.351L87.4289 172.688L88.8807 173.931L88.6245 174.263C88.6245 174.263 87.0873 176.584 88.4537 182.719C88.4537 182.884 89.4785 192.335 97.5063 198.221C98.4457 197.724 102.118 195.402 105.449 189.682L106.217 190.097C102.203 196.978 97.8479 199.05 97.6771 199.133L97.5063 199.216Z" fill="#06080A"/>
<path d="M88.1937 173.708L87.851 172.888C92.1348 171.414 98.3034 165.763 98.3034 165.681C98.4748 165.517 98.6462 165.517 98.8175 165.599C98.9889 165.681 99.0745 165.844 99.0745 166.09L98.7318 168.056L97.7894 167.892L97.8751 167.155C96.0759 168.875 91.6207 172.479 88.1937 173.708Z" fill="#06080A"/>
<path d="M123.401 39.0247C121.538 37.2681 119.271 36.3516 116.922 37.1917C115.789 37.4208 114.655 37.5736 113.521 37.6499L113.359 37.4972C114.817 34.0603 119.352 34.4422 121.781 36.5807C122.51 37.2681 123.158 38.0318 123.562 38.8719L123.401 39.0247Z" fill="#561D16"/>
<path d="M91.9327 36.8033C93.7285 31.6505 101.728 31.7409 104.177 36.2609L104.095 36.5321C101.809 36.7129 99.8504 35.7185 97.7281 35.0857C95.6875 34.4529 93.4836 35.1761 92.1776 36.9841L91.9327 36.8033Z" fill="#561D16"/>
<path d="M113.359 42.1783C115.276 38.3908 120.865 40.2459 122.542 43.1059C120.865 41.0962 116.154 39.7822 114.956 42.7194L113.359 42.1783Z" fill="#561D16"/>
<path d="M92.9526 39.3435C94.5817 38.1458 96.7252 37.6966 98.783 38.2206C100.498 38.7447 102.041 39.7927 103.156 41.0654C101.955 39.9424 100.326 39.1938 98.6116 38.9692C97.0682 38.8195 95.5249 39.2687 94.496 40.2419L92.9526 39.3435Z" fill="#561D16"/>
<path d="M96.0131 41.0646C96.5764 41.0646 97.0331 40.608 97.0331 40.0446C97.0331 39.4813 96.5764 39.0247 96.0131 39.0247C95.4498 39.0247 94.9931 39.4813 94.9931 40.0446C94.9931 40.608 95.4498 41.0646 96.0131 41.0646Z" fill="#561D16"/>
<path d="M96.5236 42.0856C95.7219 42.0856 94.9931 41.4297 94.9931 40.5551C94.9931 39.7535 95.6491 39.0247 96.5236 39.0247C97.3982 39.0247 98.0541 39.6806 98.0541 40.5551C97.9812 41.4297 97.3253 42.0856 96.5236 42.0856ZM96.5236 39.6077C96.0135 39.6077 95.5762 40.045 95.5762 40.5551C95.5762 41.0653 96.0135 41.5026 96.5236 41.5026C97.0338 41.5026 97.4711 41.0653 97.4711 40.5551C97.4711 40.045 97.0338 39.6077 96.5236 39.6077Z" fill="#561D16"/>
<path d="M116.42 42.0849C116.983 42.0849 117.44 41.6282 117.44 41.0649C117.44 40.5016 116.983 40.0449 116.42 40.0449C115.856 40.0449 115.4 40.5016 115.4 41.0649C115.4 41.6282 115.856 42.0849 116.42 42.0849Z" fill="#561D16"/>
<path d="M116.93 43.1059C116.129 43.1059 115.4 42.45 115.4 41.5754C115.4 40.7008 116.056 40.0449 116.93 40.0449C117.805 40.0449 118.461 40.7008 118.461 41.5754C118.461 42.45 117.732 43.1059 116.93 43.1059ZM116.93 40.628C116.42 40.628 115.983 41.0652 115.983 41.5754C115.983 42.0856 116.42 42.5229 116.93 42.5229C117.44 42.5229 117.878 42.0856 117.878 41.5754C117.878 41.0652 117.44 40.628 116.93 40.628Z" fill="#561D16"/>
<path d="M108.316 57.3906C108.238 57.3906 108.238 57.3906 108.316 57.3906V56.4634C109.475 56.4634 110.634 56.042 111.484 55.1991C111.871 54.7777 111.021 51.4061 110.402 48.9618C109.166 44.0731 107.852 39.0158 109.939 38.0044L110.248 38.8473C108.779 39.5216 110.17 44.8317 111.175 48.7089C112.18 52.6705 112.721 55.0305 112.025 55.7891C110.943 56.8848 109.629 57.3906 108.316 57.3906Z" fill="#561D16"/>
<path d="M99.0749 61.5064C101.996 61.3352 104.488 61.8487 107.237 61.9343C109.987 62.1054 112.651 61.5064 115.4 62.4478C110.932 66.7269 103.886 66.5557 99.5904 62.1054C99.5045 61.9343 99.2467 61.7631 99.0749 61.5064Z" fill="white"/>
<path d="M103.65 115.549L103.314 115.294C103.23 115.294 98.0964 111.978 85.8946 112.913L85.8104 111.978C96.75 111.128 102.136 113.594 103.482 114.274C104.744 112.828 110.382 106.536 113.496 105.686H113.58L116.189 106.281L117.619 101.265L118.461 101.52L116.862 107.387L113.664 106.706C110.382 107.642 103.987 115.124 103.903 115.209L103.65 115.549Z" fill="#06080A"/>
<path d="M115.595 72.249C115.595 72.249 111.28 85.5747 116.425 98.9847C118.997 105.394 119.328 112.479 117.337 119.058C117.088 119.901 116.756 120.829 116.342 121.756C115.844 123.19 103.233 146.552 133.931 163.504C133.931 163.504 142.808 158.36 148.45 138.877C148.45 138.877 151.437 126.226 144.302 106.238C141.647 98.563 140.319 90.4664 140.402 82.2855L117.918 69.6345C117.171 70.5623 116.425 71.49 115.595 72.249Z" fill="#360A08"/>
<path d="M100.095 71.3888L127.048 112.488L128.664 110.149L102.22 69.6345L100.095 71.3888Z" fill="#F2C994"/>
<path d="M128.151 113.508L101.115 71.9266L101.629 71.675L128.664 113.173L128.151 113.508Z" fill="#DBA775"/>
<path d="M99.1305 70.6354L100.685 72.6956C101.234 72.6956 101.782 72.5239 102.24 72.1805C103.245 71.5797 103.154 71.2363 103.154 71.2363L101.691 68.9187C101.142 68.5753 100.411 68.4895 99.862 68.8328C99.2219 69.262 98.9476 69.9487 99.1305 70.6354Z" fill="#F37775"/>
<path d="M128.664 110.831C128.664 110.831 128.836 106.211 131.506 106.37C131.506 106.37 134.347 106.131 133.658 111.468L128.664 110.831Z" fill="#B55331"/>
<path d="M115.969 146.868C117.317 144.837 118.243 142.467 118.496 140.013C118.496 140.013 118.159 127.91 117.822 125.202C117.822 125.202 116.98 120.293 118.749 119.108C118.749 119.108 122.455 115.215 123.129 113.691C124.729 111.406 127.087 109.967 129.783 109.459C130.962 109.29 132.141 109.798 132.899 110.729C132.899 110.729 136.437 113.268 136.268 115.13C136.268 115.13 137.616 115.299 137.953 117.33L139.216 121.731C139.216 121.731 139.89 121.731 140.227 123.34C140.564 124.778 140.732 126.217 140.648 127.741C140.648 127.741 142.838 130.957 141.49 133.919C141.49 133.919 139.637 137.982 137.11 137.22C137.11 137.22 135.173 137.051 135.426 134.173C134.415 134.85 133.91 136.035 133.994 137.304L134.162 141.028C134.584 143.229 134.331 145.599 133.236 147.545C133.236 147.545 126.413 157.109 124.055 161.003L105.104 190.033C105.104 190.033 94.4908 178.522 97.6073 168.112C97.6073 168.112 106.704 156.771 109.652 153.978C109.652 154.062 115.548 147.376 115.969 146.868Z" fill="#B55331"/>
<path d="M121.004 121.671L120.501 120.868C121.757 119.886 123.18 119.082 124.687 118.546C127.617 118.011 130.464 117.207 133.143 116.136L136.408 114.529L136.827 115.422L133.562 117.029C130.715 118.1 127.869 118.903 124.938 119.528C123.515 119.975 122.259 120.689 121.004 121.671Z" fill="#561D16"/>
<path d="M129.066 123.712L128.664 122.912C130.512 122.032 133.404 120.591 133.806 120.271C135.011 119.551 136.457 119.391 137.662 120.031C138.144 120.351 138.466 120.751 138.626 121.231L138.867 121.872L138.064 122.112L137.823 121.391C137.743 121.071 137.502 120.831 137.261 120.671C136.297 120.191 135.172 120.271 134.288 120.831C133.726 121.471 129.548 123.472 129.066 123.712Z" fill="#561D16"/>
<path d="M139.973 127.793C139.293 126.341 136.827 126.768 136.827 126.768L131.81 127.451L131.725 126.512L136.742 125.829C136.827 125.829 139.888 125.232 140.908 127.366L139.973 127.793Z" fill="#561D16"/>
<path d="M135.636 134.935L133.766 132.504L134.446 131.874L135.466 133.225C135.721 132.955 136.062 132.685 136.487 132.594C137.252 132.414 138.017 132.594 138.867 133.225L138.357 134.035C137.762 133.585 137.167 133.405 136.742 133.495C136.147 133.675 135.891 134.215 135.891 134.215L135.636 134.935Z" fill="#561D16"/>
<path d="M131.592 116.569L130.705 116.358C130.882 115.864 131.148 115.371 131.592 114.947C131.947 114.524 132.657 114.454 133.189 114.595L134.786 115.088L134.431 115.794L132.834 115.3C132.657 115.23 132.479 115.3 132.39 115.371C132.036 115.794 131.769 116.146 131.592 116.569Z" fill="#561D16"/>
<path d="M133.035 111.468C131.207 109.171 128.375 110.811 128.192 110.893L127.644 110.155C128.923 109.417 131.847 108.679 133.765 110.975L133.035 111.468Z" fill="#561D16"/>
<path d="M105.167 7.29084L108.258 10.4971L107.506 15.2221C107.506 15.2221 106.42 16.4878 103.162 16.994C95.3095 18.1753 90.1303 25.9379 91.2998 33.8692C91.8845 37.6661 92.3022 42.9817 91.3833 46.7786C88.5431 59.0131 82.7791 65.0882 86.7888 76.9851C91.5504 91.1602 91.1327 109.301 85.6193 120.86C82.9462 126.598 74.0914 133.179 72.2536 139.254C70.2487 145.836 66.6567 154.189 60.6421 159.336C59.0549 160.686 50.0331 146.173 49.6989 128.117C49.4483 115.882 54.6275 100.104 53.5416 100.188C50.1166 100.526 47.8611 103.817 46.0233 106.77C43.0996 111.41 40.3429 120.354 45.0209 135.542L46.9422 141.617C46.9422 141.617 34.5789 143.304 35.9155 121.704C35.9155 121.704 36.2497 118.667 36.6673 114.701C37.8368 101.707 47.4435 88.7133 53.2074 76.9851C56.2983 72.8507 62.8976 59.1819 64.0671 52.9381C64.9025 48.3818 66.9073 41.9692 67.6591 38.4254C67.6591 38.4254 72.003 8.8096 90.1303 6.10958C90.2973 5.94083 99.6534 3.91581 105.167 7.29084Z" fill="#360A08"/>
<path d="M106.217 14.8756C106.217 14.8756 124.803 22.5571 124.803 38.0046C124.886 38.0046 131.329 11.2459 106.217 14.8756Z" fill="#360A08"/>
<path d="M88.6209 207.378C78.935 207.378 73.2077 199.197 73.1235 199.114C68.9123 195.357 62.5954 180.748 62.3427 180.164L63.185 179.83C63.2692 179.997 69.6703 194.856 73.8815 198.613C74.05 198.78 80.3669 207.712 90.7265 206.377L97.3803 198.362L98.0541 198.947L91.1477 207.211H90.9792C90.2212 207.295 89.3789 207.378 88.6209 207.378Z" fill="#06080A"/>
<path d="M185.821 172.687C184.09 168.77 181.812 168.588 181.721 168.588L181.812 167.586C181.903 167.586 184.819 167.768 186.823 172.323L185.821 172.687Z" fill="#561D16"/>
<path d="M141.332 195.215L190.246 166.625L222.377 149.27C222.63 149.186 222.883 149.186 223.052 149.438C223.136 149.521 223.136 149.605 223.136 149.689C223.052 150.611 223.389 151.617 224.064 152.288C224.654 152.875 225.329 153.294 226.172 153.462C226.509 153.546 226.678 153.881 226.594 154.217C226.594 154.3 226.509 154.468 226.425 154.552L199.185 176.937L144.621 201.251C144.621 201.251 142.26 201.503 141.248 198.401C140.742 197.395 140.826 196.221 141.332 195.215Z" fill="#09524D"/>
<path d="M222.45 150.533L195.576 166.024L140.908 197.175C140.908 196.586 141.075 195.996 141.327 195.407L189.884 166.698L221.781 149.27C222.032 149.186 222.283 149.186 222.45 149.438C222.534 149.523 222.534 149.607 222.534 149.691C222.367 149.944 222.367 150.28 222.45 150.533Z" fill="#082E2B"/>
<path d="M106.616 69.6344C105.463 69.6344 104.221 69.3122 103.156 68.5604L103.6 67.5938C105.197 68.6678 107.148 68.7752 108.923 68.0234L109.278 69.0974C108.391 69.4196 107.503 69.6344 106.616 69.6344Z" fill="#561D16"/>
<path fill-rule="evenodd" clip-rule="evenodd" d="M448 214.5H0V213.5H448V214.5Z" fill="#7CCDCD"/>
<path d="M321.408 61.2215C321.408 61.2215 334.293 55.6457 339.877 48.2685C339.877 48.2685 344.43 40.3766 349.755 41.2344C349.755 41.2344 353.707 40.5481 359.462 48.0969C365.132 55.6457 367.021 56.1604 372.948 58.1333L369.512 64.3096C369.512 64.3096 354.05 54.1016 349.326 49.9841C349.326 49.9841 329.311 63.2802 324.587 64.2238C324.673 64.0523 321.408 61.2215 321.408 61.2215Z" fill="#D6D7D6"/>
<path fill-rule="evenodd" clip-rule="evenodd" d="M378.934 39.6746C378.934 36.6359 376.406 34.205 373.442 34.2918L305.969 35.4204C298.472 35.5073 292.37 41.6714 292.37 49.1379V212.619H287.75V49.0511C287.75 39.0669 295.77 30.9058 305.882 30.7322L373.268 29.6036C378.847 29.4299 383.467 34.1182 383.467 39.5878V212.358H378.847V39.6746H378.934Z" fill="#999999"/>
<path d="M334.351 54.843C334.351 54.843 339.267 61.0776 349.876 61.7704C367.039 62.8961 368.332 55.8821 368.332 55.8821L390.067 66.5329C391.447 67.2257 392.482 68.2648 393.258 69.5637C395.759 74.0664 401.71 84.8038 402.4 91.0385C402.4 91.0385 392.223 105.759 392.137 109.742C392.137 109.742 388.6 108.27 386.272 110.435L383.943 112.6L383.167 197.893C383.167 197.893 354.102 192.264 342.976 191.312C333.747 190.533 331.074 189.667 328.659 190.619C327.538 191.052 326.244 191.225 325.123 191.052C321.242 190.446 313.134 189.234 309.426 187.156L305.631 146.457L309.857 72.9407C310.116 68.438 312.789 64.4547 316.929 62.6363L334.351 54.843Z" fill="#75D6D4"/>
<path fill-rule="evenodd" clip-rule="evenodd" d="M344.548 33.8626C344.548 30.9 346.876 28.5474 349.808 28.5474C352.739 28.5474 355.067 30.9871 355.067 33.8626H353.946C353.946 31.5971 352.136 29.6801 349.808 29.6801C347.48 29.6801 345.669 31.5099 345.669 33.8626C345.669 36.2152 347.48 38.045 349.808 38.045H350.411V43.2731H349.29V39.1778C346.531 38.9164 344.548 36.6509 344.548 33.8626Z" fill="#D6D7D6"/>
<path fill-rule="evenodd" clip-rule="evenodd" d="M349.808 35.6286L338.326 35.9103L338.238 30.9329L349.721 30.6511L349.808 35.6286Z" fill="#999999"/>
<path fill-rule="evenodd" clip-rule="evenodd" d="M321.408 34.9141C321.408 31.9515 323.736 29.5989 326.668 29.5989C329.599 29.5989 331.927 32.0386 331.927 34.9141H330.806C330.806 32.6486 328.995 30.7316 326.668 30.7316C324.34 30.7316 322.529 32.5615 322.529 34.9141C322.529 37.2667 324.34 39.0965 326.668 39.0965H327.271V44.3246H326.15V40.2293C323.391 39.9679 321.408 37.7024 321.408 34.9141Z" fill="#D6D7D6"/>
<path fill-rule="evenodd" clip-rule="evenodd" d="M326.667 34.7806L315.185 34.8585L315.097 30.729L326.58 30.6511L326.667 34.7806Z" fill="#999999"/>
<path fill-rule="evenodd" clip-rule="evenodd" d="M338.238 51.3491L339.032 50.636C339.032 50.636 339.111 50.7251 339.191 50.8143C339.27 50.9925 339.508 51.26 339.746 51.6165C340.302 52.3296 341.175 53.3993 342.445 55.0929L341.652 55.8952C340.302 54.2015 339.429 53.1319 338.953 52.4188C338.714 52.0622 338.476 51.7948 338.397 51.6165C338.317 51.5274 338.317 51.5274 338.238 51.3491Z" fill="#A3A3A3"/>
<path fill-rule="evenodd" clip-rule="evenodd" d="M395.964 95.7586C398.638 91.6852 400.31 89.5185 401.313 88.4785C401.815 87.9585 402.066 87.6118 402.233 87.5251C402.316 87.4385 402.4 87.4385 402.4 87.4385C402.4 87.4385 402.4 87.4385 402.233 86.9184C402.066 86.3984 402.066 86.3984 402.066 86.3984C402.066 86.3984 401.982 86.3984 401.982 86.4851C401.898 86.5718 401.815 86.5718 401.731 86.6584C401.48 86.8318 401.146 87.1785 400.645 87.7851C399.641 88.9118 397.97 91.1652 395.211 95.2386C392.954 98.7053 391.617 102.259 390.781 104.859C390.363 106.159 390.112 107.285 389.945 108.066C389.861 108.499 389.778 108.759 389.778 109.019C389.778 109.106 389.778 109.192 389.778 109.279V109.366C389.778 109.366 389.778 109.366 390.363 109.452C390.948 109.539 390.948 109.539 390.948 109.539V109.452C390.948 109.366 390.948 109.366 390.948 109.192C390.948 109.019 391.032 108.672 391.115 108.326C391.283 107.546 391.533 106.505 391.868 105.205C392.453 102.432 393.79 99.052 395.964 95.7586Z" fill="#42BAB4"/>
<path fill-rule="evenodd" clip-rule="evenodd" d="M308.787 183.183C308.787 183.183 308.787 183.183 309.046 182.649L309.306 182.116C309.306 182.116 309.392 182.116 309.392 182.205C309.479 182.205 309.565 182.294 309.738 182.383C310.084 182.56 310.517 182.738 311.122 183.005C312.246 183.538 313.89 184.16 315.706 184.783C319.425 186.027 323.836 187.005 327.209 186.205C330.755 185.405 333.695 185.316 335.771 185.494C336.809 185.583 337.587 185.671 338.106 185.849C338.365 185.938 338.625 185.938 338.711 186.027C338.798 186.027 338.798 186.027 338.884 186.116L380.312 193.582L380.139 194.738L338.798 187.183C338.798 187.183 338.711 187.183 338.625 187.183C338.538 187.183 338.279 187.094 338.02 187.094C337.501 187.005 336.722 186.827 335.771 186.827C333.868 186.649 331.014 186.738 327.555 187.538C323.922 188.427 319.165 187.36 315.446 186.116C313.544 185.494 311.9 184.783 310.69 184.249C310.084 183.983 309.652 183.805 309.306 183.627C309.133 183.538 309.046 183.449 308.96 183.449C308.873 183.272 308.873 183.272 308.787 183.183Z" fill="#42BAB4"/>
<path d="M299.32 65.7265C299.32 65.7265 311.813 59.099 316.896 51.1634C316.896 51.1634 320.859 42.7918 326.287 43.3151C326.287 43.3151 330.25 42.3558 336.454 49.5938C342.657 56.7445 343.777 58.1398 349.808 59.7966L347.74 65.3777C347.74 65.3777 331.543 56.1341 326.632 52.2971C326.632 52.2971 307.505 67.209 302.852 68.5171L299.32 65.7265Z" fill="#D6D7D6"/>
<path d="M268.816 104.795L283.089 76.2843C283.089 76.2843 285.439 72.038 288.833 71.0847L298.493 65.1052L302.148 62.7653C302.148 62.7653 307.457 69.0915 315.985 69.0049C315.985 69.0049 336.959 69.9581 347.142 57.999L369.073 67.6183C369.073 67.6183 378.733 73.3379 382.823 80.704L390.83 92.2298C390.83 92.2298 381.866 120.308 374.555 121.348L370.378 120.394C370.378 120.394 367.854 156.705 366.81 158.958C366.81 158.958 348.36 162.511 338.091 158.525C332.086 156.185 310.503 163.031 310.503 163.031C310.503 163.031 300.669 164.764 298.145 164.071L290.747 132.44L283.611 133.567C283.611 133.567 279.695 130.447 279.26 122.734C278.825 115.021 268.816 104.795 268.816 104.795Z" fill="#B5E8E8"/>
<path fill-rule="evenodd" clip-rule="evenodd" d="M305.631 35.2568C298.273 35.3437 292.284 41.5136 292.284 48.987V212.619H287.75V48.987C287.75 38.9935 295.706 30.8249 305.545 30.6511L305.631 35.2568Z" fill="#999999"/>
<path fill-rule="evenodd" clip-rule="evenodd" d="M347.295 63.3969C345.383 65.1866 342.775 67.1468 340.167 68.3399C337.994 69.2774 333.648 70.641 328.693 71.5784C323.738 72.5159 318.087 73.1125 313.219 72.4307C308.438 71.7489 304.7 69.9592 302.179 68.2547C300.875 67.4025 299.919 66.6354 299.311 66.0389C298.963 65.7832 298.702 65.5275 298.528 65.3571C298.441 65.2719 298.355 65.1866 298.355 65.1866C298.355 65.1866 298.355 65.1866 298.268 65.1014C298.268 65.1014 298.268 65.1014 298.702 64.7605C299.137 64.4196 299.137 64.4196 299.137 64.4196C299.137 64.4196 299.137 64.4196 299.137 64.5049C299.137 64.5049 299.224 64.5901 299.311 64.6753C299.485 64.8458 299.745 65.0162 300.006 65.3571C300.615 65.8684 301.571 66.6354 302.788 67.4025C305.222 69.0217 308.786 70.7262 313.393 71.408C318.087 72.0898 323.564 71.4932 328.519 70.5557C333.387 69.6183 337.646 68.2547 339.733 67.4025C342.167 66.2946 344.601 64.4196 346.513 62.6299C347.469 61.7777 348.252 60.9255 348.86 60.2437C349.121 59.9028 349.382 59.6471 349.556 59.3914C349.642 59.3062 349.729 59.221 349.729 59.1358C349.729 59.1358 349.729 59.0505 349.816 59.0505L350.859 59.4767C350.773 59.6471 350.599 59.9028 350.425 60.0732C350.251 60.3289 349.99 60.5846 349.642 60.9255C349.121 61.6925 348.339 62.5447 347.295 63.3969Z" fill="#79C9C5"/>
<path fill-rule="evenodd" clip-rule="evenodd" d="M386.33 91.9845C385.433 94.6877 384.178 98.6117 382.833 103.582C381.399 108.64 378.979 113 376.827 116.139C375.751 117.708 374.765 118.929 374.048 119.801C373.69 120.237 373.421 120.586 373.152 120.76C373.062 120.847 372.972 120.935 372.883 121.022L372.793 121.109C372.793 121.109 372.793 121.109 372.345 120.673C371.897 120.237 371.897 120.237 371.897 120.237C371.897 120.237 371.897 120.237 371.986 120.15C372.076 120.063 372.076 119.975 372.255 119.888C372.435 119.714 372.704 119.365 373.062 118.929C373.779 118.057 374.765 116.836 375.751 115.354C377.813 112.302 380.323 108.029 381.668 103.146C383.013 98.1757 384.268 94.2517 385.164 91.5485C385.612 90.2406 385.971 89.1942 386.24 88.4966C386.33 88.1478 386.509 87.8862 386.509 87.7118C386.509 87.6246 386.599 87.5374 386.599 87.5374V87.4502C386.599 87.4502 386.599 87.4502 387.136 87.6246L387.674 87.799V87.8862C387.674 87.9734 387.674 87.9734 387.585 88.0606C387.495 88.235 387.405 88.4966 387.316 88.8454C387.136 89.6302 386.778 90.6766 386.33 91.9845Z" fill="#79C9C5"/>
<path fill-rule="evenodd" clip-rule="evenodd" d="M270.92 102.182C270.92 102.182 270.92 102.182 271.172 101.653C271.424 101.124 271.424 101.124 271.424 101.124C271.424 101.124 271.507 101.212 271.591 101.212C271.675 101.3 271.843 101.388 272.095 101.565C272.515 101.917 273.102 102.446 273.857 103.151C275.284 104.649 277.214 107.029 279.312 110.73V110.818C279.312 110.906 279.396 110.994 279.48 111.082C279.564 111.259 279.816 111.611 279.984 111.964C280.403 112.757 280.991 113.726 281.494 114.96C281.998 116.106 282.501 117.428 282.837 118.749C283.173 120.071 283.341 121.393 283.089 122.539C282.921 123.42 283.005 124.566 283.341 125.711C283.676 126.857 284.096 128.091 284.6 129.237C285.103 130.294 285.607 131.352 286.026 131.968C286.194 132.321 286.362 132.585 286.53 132.762C286.614 132.85 286.614 132.938 286.698 132.938V133.026L286.278 133.378C285.858 133.731 285.858 133.731 285.858 133.731V133.643C285.858 133.555 285.774 133.555 285.691 133.378C285.607 133.202 285.355 132.85 285.187 132.497C284.767 131.792 284.264 130.735 283.676 129.589C283.173 128.443 282.669 127.21 282.334 125.888C281.998 124.654 281.83 123.332 282.082 122.186C282.25 121.305 282.166 120.159 281.83 118.926C281.494 117.692 281.075 116.458 280.487 115.312C279.984 114.167 279.396 113.109 279.061 112.404C278.893 112.052 278.725 111.787 278.557 111.523C278.473 111.435 278.473 111.347 278.389 111.259V111.17C276.375 107.557 274.445 105.266 273.102 103.856C272.431 103.151 271.843 102.622 271.507 102.358C271.34 102.182 271.172 102.093 271.088 102.005C271.004 102.27 271.004 102.27 270.92 102.182Z" fill="#79C9C5"/>
<path fill-rule="evenodd" clip-rule="evenodd" d="M322.012 155.072C318.619 156.559 312.442 157.797 307.222 158.706C304.611 159.119 302.175 159.449 300.348 159.697C299.478 159.78 298.782 159.862 298.26 159.945C297.999 159.945 297.825 160.027 297.651 160.027H297.477H297.39C297.39 160.027 297.39 160.027 297.303 159.449C297.216 158.871 297.216 158.871 297.216 158.871H297.303H297.477C297.564 158.871 297.825 158.871 298.086 158.789C298.608 158.706 299.304 158.623 300.174 158.541C301.914 158.293 304.35 157.963 306.96 157.55C312.268 156.724 318.271 155.485 321.49 153.998C324.013 152.924 327.58 152.594 330.8 152.677C334.106 152.677 337.151 153.09 338.804 153.42C340.109 153.668 344.459 154.163 349.853 154.246C355.335 154.328 361.773 154.081 367.428 152.842L367.689 153.916C361.947 155.154 355.335 155.402 349.853 155.32C344.372 155.237 339.935 154.741 338.543 154.494C336.977 154.163 334.019 153.833 330.8 153.75C327.667 153.833 324.361 154.081 322.012 155.072Z" fill="#79C9C5"/>
<path d="M333.189 178.887C327.667 206.056 333.448 197.87 335.864 221.034L351.911 141.094C340.695 161.558 338.538 151.718 333.189 178.887Z" fill="#DADBDA"/>
<path d="M352.233 141.094L336.134 221.034C347.3 200.57 349.464 210.41 354.83 183.241C360.369 156.159 354.657 164.344 352.233 141.094Z" fill="#A2A2A2"/>
<path d="M355.278 178.887C349.756 206.056 355.537 197.87 357.952 221.034L374 141.094C362.784 161.558 360.627 151.718 355.278 178.887Z" fill="#DFDFDE"/>
<path d="M374.321 141.094L358.222 221.034C369.388 200.57 371.552 210.41 376.918 183.241C382.457 156.159 376.745 164.344 374.321 141.094Z" fill="#ACACAC"/>
<path d="M376.315 178.887C370.793 206.056 376.574 197.87 378.989 221.034L395.037 141.094C383.907 161.558 381.664 151.718 376.315 178.887Z" fill="#DFDFDE"/>
<path d="M395.358 141.094L379.259 221.034C390.425 200.57 392.589 210.41 397.955 183.241C403.494 156.159 397.782 164.344 395.358 141.094Z" fill="#ACACAC"/>
<path d="M396.452 169.494C396.452 174.499 392.803 178.554 388.111 178.554H328.509C323.904 178.554 320.168 174.585 320.168 169.494H308.787V230.5H407.66V169.494H396.452Z" fill="#F0C791"/>
<path d="M382.415 193.686H334.031V218.93H382.415V193.686Z" fill="#FAE7CD"/>
<path fill-rule="evenodd" clip-rule="evenodd" d="M374 205.256H343.497V204.204H374V205.256Z" fill="#F0C791"/>
<path fill-rule="evenodd" clip-rule="evenodd" d="M374 211.567H343.497V210.515H374V211.567Z" fill="#F0C791"/>
<path d="M304.579 111.03C304.579 123.546 314.874 133.731 327.72 133.731V88.502C314.962 88.502 304.579 98.6008 304.579 111.03Z" fill="#79C9C5"/>
<path fill-rule="evenodd" clip-rule="evenodd" d="M304.579 110.547C304.579 97.822 314.902 87.4502 327.462 87.4502H327.72V133.731H327.462C314.816 133.731 304.579 123.359 304.579 110.547ZM327.204 88.0603C315.074 88.2346 305.182 98.1706 305.182 110.547C305.182 122.923 314.902 133.034 327.204 133.121V88.0603Z" fill="#79C9C5"/>
<path d="M327.72 88.502V89.1898C340.166 89.1898 350.159 98.9923 350.159 111.116C350.159 123.241 340.079 133.043 327.72 133.043V133.731C340.517 133.731 350.86 123.585 350.86 111.116C350.86 98.6484 340.517 88.502 327.72 88.502Z" fill="#79C9C5"/>
<path fill-rule="evenodd" clip-rule="evenodd" d="M326.667 87.4502H326.924C339.609 87.4502 349.808 97.8895 349.808 110.591C349.808 123.292 339.523 133.731 326.924 133.731H326.667V132.426H326.924C338.837 132.426 348.608 122.596 348.608 110.591C348.608 98.4985 338.923 88.7551 326.924 88.7551H326.667V87.4502ZM327.267 87.9722V88.0592C339.437 88.2331 349.208 98.2375 349.208 110.504C349.208 122.77 339.352 132.774 327.267 132.948V133.035C339.523 132.861 349.293 122.77 349.293 110.504C349.293 98.2375 339.437 88.1461 327.267 87.9722Z" fill="#79C9C5"/>
<path d="M295.112 211.567H255.143V225.241H295.112V211.567Z" fill="#F2C993"/>
<path d="M275.127 209.463C286.192 209.463 295.112 210.398 295.112 211.567C295.112 212.736 286.106 213.67 275.127 213.67C264.149 213.67 255.143 212.736 255.143 211.567C255.228 210.32 264.063 209.463 275.127 209.463Z" fill="#F2C993"/>
<path d="M275.17 222.085C286.211 222.085 295.112 223.457 295.112 225.195C295.112 226.933 286.126 228.396 275.17 228.396C264.215 228.396 255.143 227.116 255.143 225.287C255.314 223.549 264.129 222.085 275.17 222.085Z" fill="#F2C993"/>
<path d="M275.127 210.515C283.222 210.515 289.853 210.954 289.853 211.567C289.853 212.181 283.222 212.619 275.127 212.619C267.032 212.619 260.402 212.181 260.402 211.567C260.402 210.954 267.032 210.515 275.127 210.515Z" fill="#F2C993"/>
<path d="M295.112 196.841H255.143V210.515H295.112V196.841Z" fill="#F2C993"/>
<path d="M275.127 194.738C286.192 194.738 295.112 195.673 295.112 196.841C295.112 198.01 286.106 198.945 275.127 198.945C264.149 198.945 255.143 198.01 255.143 196.841C255.228 195.673 264.063 194.738 275.127 194.738Z" fill="#F7DEBF"/>
<path d="M275.127 209.463C286.192 209.463 295.112 210.398 295.112 211.567C295.112 212.736 286.106 213.67 275.127 213.67C264.149 213.67 255.143 212.736 255.143 211.567C255.228 210.32 264.063 209.463 275.127 209.463Z" fill="#F2C993"/>
<path d="M275.127 195.79C283.222 195.79 289.853 196.228 289.853 196.841C289.853 197.455 283.222 197.893 275.127 197.893C267.032 197.893 260.402 197.455 260.402 196.841C260.402 196.315 267.032 195.79 275.127 195.79Z" fill="#D6984D"/>
<path d="M255.143 211.567C268.352 214.464 281.989 214.278 295.112 211.567H255.143Z" fill="#F2C993"/>
<path fill-rule="evenodd" clip-rule="evenodd" d="M296.164 211.671C282.753 214.248 268.729 214.426 255.143 211.671L255.406 210.515C268.816 213.182 282.666 213.093 295.989 210.515L296.164 211.671Z" fill="#D6984D"/>
</g>
<defs>
<clipPath id="clip0_2476_30782">
<rect width="448" height="230" fill="white" transform="translate(0 0.5)"/>
</clipPath>
</defs>
</svg>
